<?xml version="1.0" encoding="utf-8"?>
<!-- Generator: Adobe Illustrator 22.0.1, SVG Export Plug-In . SVG Version: 6.00 Build 0)  -->
<svg version="1.1" id="Ebene_1" xmlns="http://www.w3.org/2000/svg" xmlns:xlink="http://www.w3.org/1999/xlink" x="0px" y="0px"
	 viewBox="0 0 303.3 81.1" style="enable-background:new 0 0 303.3 81.1;" xml:space="preserve">
<style type="text/css">
	.st0{fill:#E6320F;}
</style>
<g>
	<path d="M283.3,60.5c0,0-1.1,2.5-4,2.5c-2.4,0-4.1-2-4.1-4.5c0-2.5,1.7-4.5,4.1-4.5c2.8,0,4,2.5,4,2.5V60.5z M283.4,53v2
		c0,0-1.2-2.3-4.1-2.3c-3,0-5.4,2.4-5.4,5.8c0,3.4,2.4,5.8,5.4,5.8c2.4,0,3.6-1.6,4-2.1v2.1c0,2.4-1.3,4.3-4.1,4.3
		c-2.8,0-4.2-1.9-4.2-1.9l-0.8,0.9c0,0,1.8,2.2,5,2.2c3.2,0,5.4-2.1,5.4-5.5V53H283.4z M265.8,52.8c-2.7,0-3.7,2.3-3.7,2.3v-2h-1.1
		V64h1.2v-7.6c0,0,1-2.4,3.4-2.4c1.8,0,3.1,1,3.1,3.2V64h1.2v-7C269.9,54,267.8,52.8,265.8,52.8 M251.1,64.3c2.7,0,3.7-2.2,3.7-2.2
		V64h1.1V53h-1.2v7.6c0,0-1,2.4-3.4,2.4c-1.8,0-3.1-1-3.1-3.2V53H247v7C247,63,249,64.3,251.1,64.3 M240.9,60.5c0,0-1.1,2.5-4,2.5
		c-2.4,0-4.1-2-4.1-4.5c0-2.5,1.7-4.5,4.1-4.5c2.8,0,4,2.5,4,2.5V60.5z M241,53v2c0,0-1.2-2.3-4.1-2.3c-3,0-5.4,2.4-5.4,5.8
		c0,3.4,2.4,5.8,5.4,5.8c2.4,0,3.6-1.6,4-2.1v2.1c0,2.4-1.3,4.3-4.1,4.3c-2.8,0-4.2-1.9-4.2-1.9l-0.8,0.9c0,0,1.8,2.2,5,2.2
		c3.2,0,5.4-2.1,5.4-5.5V53H241z M225.5,49.5c0,0.5,0.4,1,1,1s1-0.4,1-1s-0.4-1-1-1S225.5,49,225.5,49.5 M225.9,64h1.2V53h-1.2V64z
		 M219,60.5c0,0-1.2,2.5-3.9,2.5c-2.4,0-4.2-2-4.2-4.5c0-2.5,1.7-4.5,4.2-4.5c2.8,0,3.9,2.5,3.9,2.5V60.5z M220.3,64V45.8H219v9
		c-0.3-0.4-1.6-2.1-4-2.1c-3,0-5.4,2.4-5.4,5.8c0,3.4,2.4,5.8,5.4,5.8c2.8,0,4.1-2.3,4.1-2.3v2H220.3z M203.7,49.5c0,0.5,0.4,1,1,1
		s1-0.4,1-1s-0.4-1-1-1S203.7,49,203.7,49.5 M204,64h1.2V53H204V64z M190.2,57.9c0-1.2,1.1-3.9,4.1-3.9c2.9,0,4,2.6,4,3.9H190.2z
		 M194.3,52.8c-3.3,0-5.4,2.7-5.4,5.8c0,3.1,2.4,5.8,5.6,5.8c1.8,0,3.5-1,4.6-2.2l-0.8-0.9c-0.7,0.9-2.1,1.9-3.7,1.9
		c-2.9,0-4.3-2.4-4.4-4h9.4c0-0.3,0-0.3,0-0.5C199.7,55.2,197.3,52.8,194.3,52.8 M178.3,54.2h2.4V61c0,1.8,1,3.2,3.1,3.2
		c1.1,0,2.2-0.6,2.2-0.6l-0.5-1.1c0,0-0.8,0.5-1.6,0.5c-1.5,0-1.9-1-1.9-2.3v-6.6h3.7V53h-3.7v-3.5h-1.2V53h-2.4V54.2z M174.3,52.8
		c-2.3,0-3.2,2.1-3.2,2.1V53H170V64h1.2v-7.9c0,0,0.9-2.1,2.8-2.1c1,0,1.5,0.3,1.5,0.3L176,53C176,53,175.3,52.8,174.3,52.8
		 M156.5,57.9c0-1.2,1.1-3.9,4.1-3.9c2.9,0,4,2.6,4,3.9H156.5z M160.7,52.8c-3.3,0-5.4,2.7-5.4,5.8c0,3.1,2.4,5.8,5.6,5.8
		c1.8,0,3.5-1,4.6-2.2l-0.8-0.9c-0.7,0.9-2.1,1.9-3.7,1.9c-2.9,0-4.3-2.4-4.4-4h9.4c0-0.3,0-0.3,0-0.5
		C166,55.2,163.6,52.8,160.7,52.8 M142.1,53l5.5,11.4L153,53h-1.3l-4.2,8.8l-4.2-8.8H142.1z M130.6,62c0,0,1.4,2.3,4.7,2.3
		c2.1,0,4.2-1.1,4.2-3.1c0-2-1.6-2.7-3.7-3.1c-1.8-0.4-3.3-0.8-3.3-2.1c0-1.1,1.1-1.9,2.6-1.9c2,0,3.1,1.2,3.1,1.2l0.8-0.9
		c0,0-1.3-1.5-3.9-1.5c-2.4,0-3.9,1.5-3.9,3.1c0,1.8,1.5,2.7,3.9,3.3c1.7,0.4,3,0.8,3,2c0,1.4-1.7,1.9-2.9,1.9
		c-2.6,0-3.7-1.9-3.7-1.9L130.6,62z M118,57.9c0-1.2,1.1-3.9,4.1-3.9c2.9,0,4,2.6,4,3.9H118z M122.1,52.8c-3.3,0-5.4,2.7-5.4,5.8
		c0,3.1,2.4,5.8,5.6,5.8c1.8,0,3.5-1,4.6-2.2l-0.8-0.9c-0.7,0.9-2.1,1.9-3.7,1.9c-2.9,0-4.3-2.4-4.4-4h9.4c0-0.3,0-0.3,0-0.5
		C127.4,55.2,125,52.8,122.1,52.8 M111.1,60.5c0,0-1.2,2.5-3.9,2.5c-2.4,0-4.2-2-4.2-4.5c0-2.5,1.7-4.5,4.2-4.5
		c2.8,0,3.9,2.5,3.9,2.5V60.5z M112.3,64V45.8h-1.2v9c-0.3-0.4-1.6-2.1-4-2.1c-3,0-5.4,2.4-5.4,5.8c0,3.4,2.4,5.8,5.4,5.8
		c2.8,0,4.1-2.3,4.1-2.3v2H112.3z M93.5,52.8c-2.7,0-3.7,2.3-3.7,2.3v-2h-1.1V64h1.2v-7.6c0,0,1-2.4,3.4-2.4c1.8,0,3.1,1,3.1,3.2V64
		h1.2v-7C97.7,54,95.6,52.8,93.5,52.8 M78.8,63.1c-1.4,0-3-0.7-3-2.5s1.8-2.5,3.2-2.5c2.2,0,3.5,0.9,3.5,0.9v1.8
		C82.5,60.8,81.2,63.1,78.8,63.1 M79.3,52.8c-2.3,0-4.1,1.2-4.1,1.2l0.6,1.1c0,0,1.6-1,3.6-1c1.2,0,3.2,0.5,3.2,3.1v0.8
		c0,0-1.4-1-3.6-1c-2.1,0-4.3,1.3-4.3,3.7c0,2.4,2.1,3.7,4,3.7c2.7,0,4.1-2.2,4.1-2.2V64h1.1v-7.2C83.8,54.6,82.3,52.8,79.3,52.8
		 M62.3,64h9.3v-1.2h-8V47.2h-1.2V64z"/>
	<path d="M273.9,22.6c-2.4,0-3.3,2.1-3.3,2.1s-0.7-2.1-3.5-2.1c-2.3,0-3.1,1.9-3.1,1.9v-1.6h-1.9V34h2v-7.7c0,0,0.7-1.8,2.4-1.8
		c1.4,0,2.4,0.9,2.4,2.7V34h2v-7.7c0,0,0.7-1.8,2.4-1.8c1.4,0,2.4,0.9,2.4,2.7V34h2v-7.1C277.7,24.1,276.2,22.6,273.9,22.6
		 M252.4,34.3c2.4,0,3.4-2,3.4-2V34h1.9V22.9h-2v7.7c0,0-0.9,1.8-2.8,1.8c-1.5,0-2.7-0.8-2.7-2.7v-6.8h-2V30
		C248.2,32.8,250.2,34.3,252.4,34.3 M241,19.4c0,0.7,0.6,1.4,1.4,1.4c0.7,0,1.4-0.6,1.4-1.4s-0.6-1.4-1.4-1.4
		C241.6,18,241,18.6,241,19.4 M241.3,34h2V22.9h-2V34z M236.3,22.6c-2.1,0-3.1,2-3.1,2v-1.7h-1.9V34h2v-7.6c0,0,0.8-1.9,2.5-1.9
		c0.8,0,1.3,0.2,1.3,0.2l0.7-1.8C237.9,22.9,237.2,22.6,236.3,22.6 M218.7,27.5c0.1-1.2,1.1-3,3.5-3c2.2,0,3.4,1.8,3.4,3H218.7z
		 M222.2,22.6c-3.3,0-5.5,2.6-5.5,5.8c0,3.3,2.4,5.8,5.8,5.8c2.9,0,4.6-2.2,4.6-2.2l-1.3-1.3c0,0-1.2,1.6-3.3,1.6
		c-2.1,0-3.7-1.6-3.8-3.2h9c0-0.3,0-0.4,0-0.6C227.6,24.9,225.3,22.6,222.2,22.6 M206,24.7h2.2v6.1c0,2.4,1.8,3.5,3.3,3.5
		c0.6,0,1.3-0.1,2.3-0.7l-0.7-1.7c0,0-0.6,0.5-1.3,0.5c-1.1,0-1.6-0.6-1.6-1.7v-6h3.5v-1.8h-3.5v-3.4h-2v3.4H206V24.7z M193.9,32
		c0,0,1.6,2.3,4.8,2.3c2.1,0,4.4-1.1,4.4-3.2c0-2.3-1.8-3-3.9-3.5c-1.8-0.4-2.7-0.8-2.7-1.7c0-0.7,0.7-1.4,2.1-1.4
		c1.7,0,2.8,1.2,2.8,1.2l1.3-1.4c0,0-1.5-1.7-4.1-1.7c-2.5,0-4.1,1.6-4.1,3.2c0,2.1,1.7,3,4.1,3.5c1.7,0.3,2.5,0.8,2.5,1.8
		c0,0.9-1.3,1.4-2.4,1.4c-2.2,0-3.4-1.8-3.4-1.8L193.9,32z M187.4,19.4c0,0.7,0.6,1.4,1.4,1.4s1.4-0.6,1.4-1.4s-0.6-1.4-1.4-1.4
		S187.4,18.6,187.4,19.4 M187.7,34h2V22.9h-2V34z M178.7,22.6c-2.4,0-3.4,1.8-3.4,1.8v-1.6h-1.9V34h2v-7.6c0,0,1-1.9,2.8-1.9
		c1.5,0,2.7,0.8,2.7,2.7V34h2v-7.1C182.9,24.1,180.9,22.6,178.7,22.6 M166.1,19.4c0,0.7,0.6,1.4,1.4,1.4c0.7,0,1.4-0.6,1.4-1.4
		s-0.6-1.4-1.4-1.4C166.8,18,166.1,18.6,166.1,19.4 M166.5,34h2V22.9h-2V34z M157.8,22.6c-2.4,0-3.3,2.1-3.3,2.1s-0.7-2.1-3.5-2.1
		c-2.3,0-3.1,1.9-3.1,1.9v-1.6h-1.9V34h2v-7.7c0,0,0.7-1.8,2.4-1.8c1.4,0,2.4,0.9,2.4,2.7V34h2v-7.7c0,0,0.7-1.8,2.4-1.8
		c1.4,0,2.4,0.9,2.4,2.7V34h2v-7.1C161.6,24.1,160.1,22.6,157.8,22.6 M133,32c0,0,1.6,2.3,4.8,2.3c2.1,0,4.4-1.1,4.4-3.2
		c0-2.3-1.8-3-3.9-3.5c-1.8-0.4-2.7-0.8-2.7-1.7c0-0.7,0.7-1.4,2.1-1.4c1.7,0,2.8,1.2,2.8,1.2l1.3-1.4c0,0-1.5-1.7-4.1-1.7
		c-2.5,0-4.1,1.6-4.1,3.2c0,2.1,1.7,3,4.1,3.5c1.7,0.3,2.5,0.8,2.5,1.8c0,0.9-1.3,1.4-2.4,1.4c-2.2,0-3.4-1.8-3.4-1.8L133,32z
		 M121.1,27.5c0.1-1.2,1.1-3,3.5-3c2.2,0,3.4,1.8,3.4,3H121.1z M124.6,22.6c-3.3,0-5.5,2.6-5.5,5.8c0,3.3,2.4,5.8,5.8,5.8
		c2.9,0,4.6-2.2,4.6-2.2l-1.3-1.3c0,0-1.2,1.6-3.3,1.6c-2.1,0-3.7-1.6-3.8-3.2h9c0-0.3,0-0.4,0-0.6C130,24.9,127.7,22.6,124.6,22.6
		 M112.8,30.5c0,0-1.1,1.9-3.3,1.9c-2.3,0-3.7-1.8-3.7-4c0-2.2,1.5-4,3.7-4s3.3,1.9,3.3,1.9V30.5z M109.3,22.6c-3,0-5.4,2.6-5.4,5.8
		s2.4,5.8,5.4,5.8c2.7,0,3.7-1.9,3.7-1.9V34h1.8V15.8h-2v8.4C112.8,24.3,111.7,22.6,109.3,22.6 M96,22.6c-2.4,0-3.4,1.8-3.4,1.8
		v-1.6h-1.9V34h2v-7.6c0,0,1-1.9,2.8-1.9c1.5,0,2.7,0.8,2.7,2.7V34h2v-7.1C100.1,24.1,98.2,22.6,96,22.6 M80.9,34.3
		c2.4,0,3.4-2,3.4-2V34h1.9V22.9h-2v7.7c0,0-0.9,1.8-2.8,1.8c-1.5,0-2.7-0.8-2.7-2.7v-6.8h-2V30C76.7,32.8,78.7,34.3,80.9,34.3
		 M64.2,24.4v-5.3H67c1.9,0,3,1,3,2.7s-1.2,2.7-3,2.7H64.2z M67.5,32.1h-3.2v-5.8h3.2c2.4,0,3.5,1.3,3.5,2.9S69.9,32.1,67.5,32.1
		 M62.2,34h5.3c3.3,0,5.5-1.9,5.5-4.8c0-3.3-2.6-4.1-2.8-4.1c0.2,0,1.9-1,1.9-3.3c0-2.8-1.9-4.6-5.4-4.6h-4.4V34z"/>
</g>
<polygon class="st0" points="43.2,22.7 43.2,17 17,17 19.7,22.7 "/>
<polygon class="st0" points="24.9,34 43.2,34 43.2,28.3 22.3,28.3 "/>
</svg>
