<?xml version="1.0" encoding="UTF-8" standalone="no"?>
<!DOCTYPE svg PUBLIC "-//W3C//DTD SVG 1.0//EN" "http://www.w3.org/TR/2001/REC-SVG-20010904/DTD/svg10.dtd">
<!-- Created with Inkscape (http://www.inkscape.org/) -->
<svg xmlns:svg="http://www.w3.org/2000/svg" xmlns="http://www.w3.org/2000/svg" xmlns:inkscape="http://www.inkscape.org/namespaces/inkscape" version="1.0" width="800" height="800" id="svg2">
  <defs id="defs4">
  </defs>
  <g id="layer1">
    <path d="M 671,185.5 A 127,127 0 1 1 417,185.5 A 127,127 0 1 1 671,185.5 z" transform="matrix(2.721886,0,0,2.721886,-1085.3197,-118.04127)" id="path3962" style="opacity:1;fill:#ffffff;fill-opacity:1;fill-rule:nonzero;stroke:#5eb63c;stroke-width:8;stroke-linecap:butt;stroke-linejoin:miter;stroke-miterlimit:4;stroke-dasharray:none;stroke-dashoffset:0;stroke-opacity:1"/>
    <path d="M 395.38625,82.017348 C 227.10837,82.017348 90.535007,218.5907 90.535034,386.86859 C 90.535034,555.14647 227.10843,691.71985 395.38625,691.71982 L 395.38625,82.017348 z" id="path3964" style="opacity:1;fill:#5eb63c;fill-opacity:1;fill-rule:nonzero;stroke:none;stroke-width:8;stroke-linecap:butt;stroke-linejoin:miter;stroke-miterlimit:4;stroke-dasharray:none;stroke-dashoffset:0;stroke-opacity:1"/>
    <path d="M 343.67042,257.66407 C 331.6512,257.66431 323.8565,259.78461 316.3665,264.04349 C 308.87641,268.30286 303.1104,274.00926 298.92942,281.14033 C 294.74847,288.27186 291.90135,296.43104 290.50858,305.63731 C 289.11579,314.84398 288.46714,324.29924 288.46717,333.96193 L 288.46717,438.15913 C 288.46717,447.8221 289.11582,457.28087 290.50858,466.48376 C 291.90132,475.68672 294.74849,483.84593 298.92942,490.98073 C 303.11037,498.11558 308.87636,503.81845 316.3665,508.07758 C 323.85656,512.3367 331.65111,514.45702 343.67042,514.457 C 355.68956,514.457 363.56926,512.3367 371.0594,508.07758 C 378.54937,503.81845 384.40048,498.11558 388.58154,490.98073 C 392.76238,483.84593 395.52444,475.68675 396.91731,466.48376 C 398.30994,457.28084 399.0437,447.8221 399.04379,438.15913 L 399.04379,333.96193 C 399.04365,324.29924 398.30997,314.84395 396.91731,305.63731 C 395.52442,296.43107 392.76235,288.27186 388.58154,281.14033 C 384.4005,274.00926 378.54937,268.30286 371.0594,264.04349 C 363.56926,259.78461 355.68948,257.66431 343.67042,257.66407 z M 167.51337,262.85266 L 167.51337,509.2684 L 232.58345,509.2684 C 247.91436,509.2684 259.36934,505.19058 267.03232,497.01991 C 274.69502,488.84933 278.51519,474.87517 278.51527,455.08586 L 278.51527,420.55193 C 278.51516,405.59419 275.34634,394.07288 268.98867,386.018 C 262.63078,377.96334 254.18237,373.72273 243.55605,373.25916 L 244.0664,372.57869 C 248.941,372.34706 253.32999,371.63131 257.25054,370.36716 C 261.1709,369.10322 264.50189,367.09145 267.20243,364.32797 C 269.90279,361.56477 271.93381,357.87019 273.32668,353.27031 C 274.7193,348.67076 275.45302,342.7981 275.45315,335.66311 L 275.45315,308.35919 C 275.45304,299.61644 274.47472,292.36659 272.64621,286.49905 C 270.81743,280.63202 268.21751,275.91605 264.82078,272.46432 C 261.42384,269.013 257.28209,266.56017 252.31712,265.06419 C 247.35202,263.56863 241.74278,262.85293 235.47545,262.85266 L 167.51337,262.85266 z M 343.67042,290.41176 C 347.32768,290.412 353.50805,292.03702 354.72808,295.26012 C 355.94798,298.48365 356.51435,302.29023 356.51432,306.65801 L 356.51432,461.6354 C 356.51426,466.01042 355.948,469.81357 354.72808,473.03329 C 353.50802,476.25312 347.3276,477.79665 343.67042,477.79659 C 340.01305,477.79665 334.51318,476.25315 333.29323,473.03329 C 332.0732,469.81355 331.42182,466.01045 331.42193,461.6354 L 331.42193,306.65801 C 331.42188,302.2902 332.0732,298.48365 333.29323,295.26012 C 334.51318,292.03702 340.01297,290.41203 343.67042,290.41176 z M 210.63824,294.74976 L 225.0132,294.74976 C 228.49504,294.74998 231.25979,296.06941 233.26392,298.83259 C 235.26793,301.59612 236.24093,305.29076 236.24098,309.89025 L 236.24098,347.40124 C 236.2409,352.00815 235.26796,355.69921 233.26392,358.45891 C 231.25977,361.21887 228.49504,362.62693 225.0132,362.62679 L 210.63824,362.62679 L 210.63824,294.74976 z M 210.63824,396.05496 L 224.50285,396.05496 C 228.16545,396.05506 231.00462,397.35112 233.0938,399.88261 C 235.18288,402.41429 236.24093,406.32591 236.24098,411.62074 L 236.24098,459.50892 C 236.2409,464.80394 235.1829,468.71557 233.0938,471.24706 C 231.00459,473.77874 228.16547,475.07474 224.50285,475.07471 L 210.63824,475.07471 L 210.63824,396.05496 z" id="path3981" style="font-size:110.33255005px;font-style:normal;font-variant:normal;font-weight:normal;font-stretch:normal;text-align:start;line-height:100%;writing-mode:lr-tb;text-anchor:start;opacity:1;fill:#ffffff;fill-opacity:1;stroke:none;stroke-width:1px;stroke-linecap:butt;stroke-linejoin:miter;stroke-opacity:1;font-family:Impact LT;-inkscape-font-specification:Impact LT"/>
    <path d="M 414.94981,262.85266 L 414.94981,509.2684 L 455.26774,509.2684 L 455.26774,398.52167 L 455.7781,398.52167 L 488.35567,509.2684 L 533.35185,509.2684 L 494.47991,380.40411 L 527.48278,262.85266 L 486.56943,262.85266 L 455.7781,363.30727 L 455.26774,363.30727 L 455.26774,262.85266 L 414.94981,262.85266 z M 535.47832,262.85266 L 535.47832,441.64655 C 535.47832,452.00474 536.37156,461.53765 538.20021,470.39647 C 540.02888,479.25533 543.11789,486.97354 547.47163,493.5325 C 551.82529,500.09151 557.67642,505.24488 564.99377,508.92816 C 572.31105,512.61145 578.59844,514.45702 589.74592,514.457 C 600.89322,514.457 605.81975,512.61145 613.13713,508.92816 C 620.45432,505.24488 626.30548,500.09151 630.65927,493.5325 C 635.01285,486.97354 638.10191,479.25533 639.93069,470.39647 C 641.75923,461.53765 642.65247,452.00474 642.65258,441.64655 L 642.65258,262.85266 L 601.82429,262.85266 L 601.82429,457.63763 C 601.82424,465.00425 601.0905,470.21187 599.69782,473.20341 C 598.305,476.19501 593.05764,477.71156 589.74592,477.71154 C 586.43404,477.71156 581.27177,476.19498 579.87909,473.20341 C 578.48627,470.2119 577.75253,465.00425 577.75261,457.63763 L 577.75261,262.85266 L 535.47832,262.85266 z" id="path3971" style="font-size:110.33255005px;font-style:normal;font-variant:normal;font-weight:normal;font-stretch:normal;text-align:start;line-height:100%;writing-mode:lr-tb;text-anchor:start;opacity:1;fill:#5eb63c;fill-opacity:1;stroke:none;stroke-width:1px;stroke-linecap:butt;stroke-linejoin:miter;stroke-opacity:1;font-family:Impact LT;-inkscape-font-specification:Impact LT"/>
  </g>
</svg>